<svg width="154" height="186" viewBox="0 0 154 186" fill="none" xmlns="http://www.w3.org/2000/svg">
<path d="M150.126 141.39C152.53 139.943 154 137.342 154 134.536V50.8754C154 48.0695 152.53 45.4687 150.126 44.0215L81.126 2.48384C78.5876 0.955713 75.4124 0.955715 72.874 2.48384L3.87399 44.0215C1.47005 45.4686 7.00455e-06 48.0695 6.78855e-06 50.8754L3.48099e-07 134.536C1.32091e-07 137.342 1.47004 139.943 3.87398 141.39L76.9977 185.411L76.9982 185.411C76.999 185.411 77 185.411 77 185.41C77 185.409 77.0002 185.409 77.0005 185.409L150.126 141.39Z" fill="black"/>
<path d="M88.2389 50.6594C88.238 50.6604 88.2384 50.6621 88.2398 50.6625C89.0425 50.8971 89.7931 51.2941 90.4488 51.831C91.1053 52.3686 91.6537 53.0358 92.0627 53.7944C92.4718 54.5531 92.7334 55.3884 92.8327 56.2525C92.932 57.1167 92.8669 57.9927 92.6413 58.8307L73.8757 128.542C73.4208 130.233 72.34 131.667 70.8711 132.528C69.4022 133.389 67.6655 133.606 66.043 133.132C64.4205 132.657 63.0452 131.53 62.2196 129.999C61.394 128.467 61.1857 126.656 61.6406 124.965L80.4062 55.2451C80.6315 54.4074 81.013 53.6241 81.5287 52.9401C82.0445 52.2561 82.6844 51.6848 83.412 51.2587C84.1396 50.8327 84.9406 50.5603 85.7691 50.4571C86.5967 50.354 87.4356 50.4217 88.2381 50.6563C88.2395 50.6567 88.2399 50.6584 88.2389 50.6594ZM58.3373 68.479C59.5269 69.7209 60.1951 71.4044 60.1951 73.1597C60.1951 74.9149 59.5269 76.5984 58.3373 77.8403C50.8091 85.697 50.8139 98.0932 58.3457 105.946C59.5369 107.189 60.2059 108.874 60.2055 110.631C60.2051 112.388 59.5354 114.072 58.3436 115.314C57.1519 116.556 55.5358 117.254 53.8508 117.253C52.1659 117.253 50.5501 116.555 49.3589 115.312L31.3896 96.5762C30.1999 95.3343 29.5317 93.6508 29.5317 91.8955C29.5317 90.1403 30.1999 88.4568 31.3896 87.2149L49.3547 68.479C49.9447 67.8635 50.6451 67.3752 51.4161 67.0421C52.1871 66.709 53.0135 66.5375 53.8481 66.5375C54.6827 66.5375 55.5091 66.709 56.2801 67.0421C57.0511 67.3752 57.7473 67.8635 58.3373 68.479ZM95.9446 77.8403C95.3205 77.2339 94.8199 76.5027 94.4727 75.6902C94.1255 74.8777 93.9388 74.0006 93.9237 73.1113C93.9087 72.2219 94.0656 71.3385 94.3851 70.5138C94.7046 69.689 95.1801 68.9398 95.7834 68.3109C96.3866 67.6819 97.1052 67.1861 97.8962 66.8529C98.6872 66.5198 99.5344 66.3562 100.387 66.3719C101.24 66.3876 102.082 66.5823 102.861 66.9443C103.64 67.3063 104.341 67.8282 104.923 68.479L122.892 87.2105C124.083 88.4526 124.752 90.137 124.752 91.8933C124.752 93.6496 124.083 95.3341 122.892 96.5762L104.927 115.312C104.337 115.927 103.637 116.415 102.866 116.748C102.096 117.082 101.27 117.253 100.435 117.253C99.601 117.254 98.7748 117.082 98.0039 116.75C97.2331 116.417 96.5326 115.929 95.9425 115.314C95.3524 114.699 94.8843 113.969 94.5648 113.166C94.2454 112.362 94.0809 111.501 94.0807 110.631C94.0805 109.761 94.2446 108.899 94.5637 108.096C94.8828 107.292 95.3506 106.562 95.9404 105.946C103.473 98.0925 103.475 85.6965 95.9446 77.8403Z" fill="white"/>
</svg>
