<svg width="246" height="116" viewBox="0 0 246 116" fill="none" xmlns="http://www.w3.org/2000/svg">
<path d="M95.9985 88.9115C98.4737 87.4825 99.9985 84.8414 99.9985 81.9833V33.4867C99.9985 30.6286 98.4738 27.9876 95.9986 26.5585L53.9994 2.30952C51.5241 0.880389 48.4744 0.880386 45.9992 2.30951L3.99992 26.5585C1.52476 27.9876 4.4928e-06 30.6286 4.26339e-06 33.4866L3.70729e-07 81.9834C1.41321e-07 84.8415 1.52475 87.4825 3.99991 88.9115L49.9978 115.469L49.9982 115.469C49.9986 115.47 49.9992 115.469 49.9993 115.469C49.9993 115.469 49.9994 115.468 49.9996 115.468L95.9985 88.9115Z" fill="black"/>
<path d="M111.9 38.1628C111.9 35.7059 112.779 33.8257 114.537 32.5221C116.295 31.2185 118.781 30.5667 121.995 30.5667V54.7087L147.231 30.5667C148.487 31.4692 149.491 32.497 150.245 33.6502C151.048 34.7533 151.45 35.731 151.45 36.5834C151.45 37.3355 151.174 38.0875 150.621 38.8396C150.119 39.5416 149.341 40.394 148.286 41.3967L133.22 55.6112L153.936 81.4079C152.379 83.5137 150.345 84.5667 147.834 84.5667C145.423 84.5667 143.49 83.6641 142.034 81.8591L126.289 61.9288L121.995 66.1405V77.4218C121.995 79.8786 121.191 81.6836 119.584 82.8368C117.977 83.9901 115.416 84.5667 111.9 84.5667V38.1628Z" fill="black"/>
<path d="M175 84.5667C171.183 84.5667 167.743 83.8396 164.679 82.3856C161.616 80.9316 159.205 78.9511 157.447 76.4441C155.74 73.887 154.886 71.029 154.886 67.8703C154.886 65.7644 155.765 64.2853 157.523 63.4329C159.331 62.5806 161.842 62.1544 165.056 62.1544C164.905 63.0569 164.83 64.2101 164.83 65.614C164.83 68.8731 165.684 71.38 167.391 73.1349C169.149 74.8898 171.685 75.7672 175 75.7672C178.264 75.7672 180.775 74.8396 182.533 72.9845C184.291 71.0792 185.17 68.3717 185.17 64.8619V39.9678H177.561C175.201 39.9678 173.443 39.2658 172.288 37.8619C171.133 36.4079 170.555 34.2017 170.555 31.2435H190.368C191.724 31.2435 192.879 31.6948 193.833 32.5973C194.787 33.4497 195.264 34.5277 195.264 35.8313V64.8619C195.264 68.6224 194.386 72.0068 192.628 75.0151C190.92 77.9733 188.51 80.3048 185.396 82.0096C182.332 83.7143 178.867 84.5667 175 84.5667Z" fill="black"/>
<path d="M203.639 35.8313C203.639 34.5277 204.116 33.4497 205.07 32.5973C206.024 31.6948 207.23 31.2435 208.686 31.2435H228.8C234.224 31.2435 238.417 32.6725 241.38 35.5304C244.394 38.3884 245.9 42.3995 245.9 47.5639C245.9 50.5221 245.298 53.029 244.092 55.0848C242.887 57.0903 241.054 58.6948 238.593 59.8981V60.1238C243.013 62.0792 245.222 65.7895 245.222 71.2547V77.121C245.222 79.5277 244.369 81.3828 242.661 82.6864C240.954 83.9399 238.442 84.5667 235.128 84.5667V71.7059C235.128 69.0485 234.6 67.0931 233.546 65.8396C232.491 64.5862 230.884 63.9594 228.725 63.9594H213.583V77.121C213.583 79.5778 212.729 81.4329 211.021 82.6864C209.364 83.9399 206.903 84.5667 203.639 84.5667V35.8313ZM228.273 55.3856C230.683 55.3856 232.541 54.7087 233.847 53.355C235.153 51.9511 235.806 49.9956 235.806 47.4887C235.806 42.3745 233.295 39.8173 228.273 39.8173H213.583V55.3856H228.273Z" fill="black"/>
<path d="M57.2973 31.5494C57.2966 31.55 57.2969 31.5511 57.2978 31.5513C57.819 31.6974 58.3064 31.9447 58.7322 32.2791C59.1585 32.6139 59.5146 33.0294 59.7802 33.5018C60.0458 33.9743 60.2157 34.4945 60.2802 35.0327C60.3446 35.5709 60.3024 36.1165 60.1559 36.6383L47.9706 80.0525C47.6753 81.1061 46.9735 81.9991 46.0196 82.5352C45.0658 83.0713 43.9381 83.2066 42.8845 82.9112C41.831 82.6158 40.9379 81.914 40.4018 80.9602C39.8657 80.0063 39.7305 78.8786 40.0259 77.8251L52.2111 34.4053C52.3575 33.8836 52.6052 33.3958 52.9401 32.9698C53.275 32.5438 53.6905 32.188 54.1629 31.9227C54.6354 31.6574 55.1555 31.4877 55.6935 31.4234C56.2309 31.3592 56.7757 31.4014 57.2968 31.5475C57.2976 31.5478 57.2979 31.5488 57.2973 31.5494ZM37.8809 42.6471C38.6534 43.4205 39.0873 44.4689 39.0873 45.5621C39.0873 46.6552 38.6534 47.7036 37.8809 48.4771C33.0505 53.312 33.0537 61.1481 37.8864 65.9808C38.6599 66.7546 39.0942 67.804 39.094 68.8982C39.0937 69.9923 38.6588 71.0415 37.885 71.8149C37.1112 72.5884 36.0618 73.0228 34.9677 73.0225C33.8736 73.0223 32.8244 72.5874 32.0509 71.8136L20.3826 60.1453C19.6102 59.3719 19.1763 58.3234 19.1763 57.2303C19.1763 56.1372 19.6102 55.0887 20.3826 54.3153L32.0481 42.6471C32.4312 42.2637 32.8861 41.9597 33.3867 41.7522C33.8873 41.5447 34.424 41.4379 34.9659 41.4379C35.5078 41.4379 36.0444 41.5447 36.5451 41.7522C37.0457 41.9597 37.4978 42.2637 37.8809 42.6471ZM62.3009 48.4771C61.8956 48.0994 61.5705 47.644 61.3451 47.138C61.1196 46.632 60.9984 46.0858 60.9886 45.5319C60.9789 44.9781 61.0807 44.4279 61.2882 43.9143C61.4957 43.4006 61.8045 42.934 62.1962 42.5423C62.5879 42.1506 63.0545 41.8418 63.5681 41.6344C64.0817 41.4269 64.6319 41.325 65.1858 41.3348C65.7396 41.3446 66.2859 41.4658 66.7918 41.6913C67.2978 41.9167 67.7532 42.2418 68.1309 42.6471L79.7991 54.3126C80.5725 55.0861 81.0069 56.1351 81.0069 57.2289C81.0069 58.3227 80.5725 59.3718 79.7991 60.1453L68.1336 71.8136C67.7507 72.1967 67.2959 72.5007 66.7955 72.7081C66.295 72.9156 65.7586 73.0224 65.2169 73.0225C64.6751 73.0227 64.1386 72.9161 63.6381 72.7089C63.1375 72.5017 62.6827 72.1979 62.2995 71.8149C61.9164 71.4319 61.6124 70.9772 61.4049 70.4768C61.1975 69.9763 61.0907 69.4399 61.0905 68.8982C61.0904 68.3564 61.197 67.8199 61.4042 67.3194C61.6114 66.8188 61.9152 66.364 62.2981 65.9808C67.1313 61.1476 67.1326 53.3118 62.3009 48.4771Z" fill="white"/>
</svg>
